# xmcd
#
# Track frame offsets: 
#        150
#        450
#        19376
#        33629
#        48026
#        63630
#        77282
#        90870
#        107028
#        124354
#        137375
#        152186
#        169693
#
# Disc length: 2421 seconds
#
# Revision: 0
# Processed by: cddbd v1.5.2PL0 Copyright (c) Steve Scherf et al.
# Submitted via: ExactAudioCopy v1.3
#
DISCID=9609730d
DTITLE=Barrelhouse - Vintage Blues
DYEAR=2010
DGENRE=Blues
TTITLE0=Oh Death
TTITLE1=I Love The Way I Live
TTITLE2=Shake 'em On Down
TTITLE3=Comeback Baby
TTITLE4=Bring It On Home
TTITLE5=God Bless The Child
TTITLE6=Midnight Hour Blues
TTITLE7=Groundhog Blues
TTITLE8=Spoonful
TTITLE9=Meet Me At The Bottom
TTITLE10=Mean Old World
TTITLE11=Weary Blues From Waiting
TTITLE12=It Serves Me Right To Suffer
EXTD=
EXTT0=
EXTT1=
EXTT2=
EXTT3=
EXTT4=
EXTT5=
EXTT6=
EXTT7=
EXTT8=
EXTT9=
EXTT10=
EXTT11=
EXTT12=
PLAYORDER=
